<?xml version="1.0" encoding="utf-8"?>
<!-- Generator: Adobe Illustrator 21.1.0, SVG Export Plug-In . SVG Version: 6.00 Build 0)  -->
<svg version="1.1" id="Camada_1" xmlns="http://www.w3.org/2000/svg" xmlns:xlink="http://www.w3.org/1999/xlink" x="0px" y="0px"
	 viewBox="0 0 30 30" style="enable-background:new 0 0 30 30;" xml:space="preserve">
<style type="text/css">
	.st0{fill:#1D1D1B;}
	.st1{fill:#FFFFFF;}
	.st2{fill:#E5013C;}
	.st3{fill:#DCDCDC;}
</style>
<g>
	<g>
		<path class="st1" d="M17.9,5.8l0.2-0.4l0.2-0.4l0.5-0.8C19,4.2,19,4.1,18.9,4c-0.1-0.1-0.2,0-0.3,0.1L18,4.9l-0.2,0.4l-0.2,0.4
			c-0.8-0.3-1.6-0.5-2.5-0.5c-0.9,0-1.8,0.2-2.5,0.5l-0.2-0.4L12,4.9l-0.6-0.9C11.3,4,11.2,4,11.1,4C11,4.1,11,4.2,11.1,4.3l0.5,0.8
			l0.2,0.4l0.2,0.4c-1.8,0.8-3,2.4-3,4.3H21C21,8.3,19.7,6.7,17.9,5.8z M12.4,8.4c-0.4,0-0.6-0.3-0.6-0.6c0-0.4,0.3-0.6,0.6-0.6
			c0.4,0,0.6,0.3,0.6,0.6S12.8,8.4,12.4,8.4z M17.6,8.4c-0.4,0-0.6-0.3-0.6-0.6c0-0.4,0.3-0.6,0.6-0.6c0.4,0,0.6,0.3,0.6,0.6
			S17.9,8.4,17.6,8.4z"/>
		<path class="st1" d="M9.1,10.9L9.1,10.9L9,12v0.9v7.4c0,0.7,0.6,1.4,1.3,1.4h1c0,0.1-0.1,0.2-0.1,0.4v0.1v0.4v2.2
			c0,0.7,0.6,1.3,1.3,1.3c0.7,0,1.3-0.6,1.3-1.3v-2.2v-0.4V22c0-0.1,0-0.2-0.1-0.4h2.4c0,0.1-0.1,0.2-0.1,0.4v0.1v0.4v2.2
			c0,0.7,0.6,1.3,1.3,1.3c0.7,0,1.3-0.6,1.3-1.3v-2.2v-0.4V22c0-0.1,0-0.2-0.1-0.4h1c0.7,0,1.4-0.6,1.4-1.4v-7.4V12v-1.1h-0.1
			L9.1,10.9z"/>
		<path class="st1" d="M6.9,10.9c-0.7,0-1.3,0.6-1.3,1.3v5.5c0,0.7,0.6,1.3,1.3,1.3c0.7,0,1.3-0.6,1.3-1.3v-5.5
			C8.2,11.5,7.6,10.9,6.9,10.9z"/>
		<path class="st1" d="M23.1,10.9c-0.7,0-1.3,0.6-1.3,1.3v5.5c0,0.7,0.6,1.3,1.3,1.3c0.7,0,1.3-0.6,1.3-1.3v-5.5
			C24.4,11.5,23.8,10.9,23.1,10.9z"/>
	</g>
</g>
</svg>
