<?xml version="1.0" encoding="utf-8"?>
<!-- Generator: Adobe Illustrator 21.1.0, SVG Export Plug-In . SVG Version: 6.00 Build 0)  -->
<svg version="1.1" id="Camada_1" xmlns="http://www.w3.org/2000/svg" xmlns:xlink="http://www.w3.org/1999/xlink" x="0px" y="0px"
	 viewBox="0 0 181.4 37" style="enable-background:new 0 0 181.4 37;" xml:space="preserve">
<style type="text/css">
	.st0{fill:#1D1D1B;}
	.st1{fill:#FFFFFF;}
	.st2{fill:#E5013C;}
	.st3{fill:#DCDCDC;}
</style>
<g>
	<path d="M2.3,34.2L13.7,2.8h4.2L30,34.2h-4.5l-3.5-9.5H9.7l-3.3,9.5H2.3L2.3,34.2z M10.8,21.3h10.1l-3.1-8.7l-2-5.2l-1.7,4.6
		L10.8,21.3L10.8,21.3z"/>
	<path d="M34.6,34.2V2.8h13.9c3.4,0,7.1,0.3,9,3.8c0.8,1.4,1.4,3,1.4,4.7c0,4.9-3.1,8.6-7.5,9.3c0.4,0.2,2.9,4.1,3.4,5l5,8.5h-4.8
		c-2.7-4.5-5.4-9-8.6-13.2c-0.7,0-3.2-0.1-3.8-0.1h-4.4v13.3H34.6L34.6,34.2z M38.4,17.3h9.3c1.7,0,3.1-0.2,4.1-0.6
		c1-0.4,1.7-1,2.2-1.9c0.5-0.9,0.8-2.4,0.8-3.5c0-1.5-0.5-2.7-1.5-3.7c-1-1-2.5-1.4-4.7-1.4H38.4V17.3L38.4,17.3z"/>
	<polygon points="64.7,34.2 64.7,2.8 86.1,2.8 86.1,6.5 68.5,6.5 68.5,16.1 84.3,16.1 84.3,19.8 68.5,19.8 68.5,30.5 86.8,30.5 
		86.8,34.2 64.7,34.2 	"/>
	<g>
		<path d="M91.5,34.2v-3.8l16.3-20.1c1.2-1.4,2.3-2.7,3.3-3.7H93.4V2.8h22.8v3.7L98.3,28.3l-1.9,2.2h20.3v3.7H91.5z"/>
		<path d="M120.6,34.2v-3.8l16.3-20.1c1.2-1.4,2.3-2.7,3.3-3.7h-17.7V2.8h22.8v3.7l-17.8,21.7l-1.9,2.2h20.3v3.7H120.6z"/>
	</g>
	<g>
		<path d="M147.1,18.9c0-5.2,1.5-9.3,4.5-12.2c3-2.9,6.8-4.4,11.6-4.4c3.1,0,5.9,0.7,8.4,2.1c2.5,1.4,4.4,3.3,5.7,5.8
			c1.3,2.5,2,5.3,2,8.4c0,3.2-0.7,6-2.1,8.5s-3.3,4.4-5.8,5.7c-2.5,1.3-5.2,1.9-8.1,1.9c-3.2,0-6-0.7-8.5-2.1
			c-2.5-1.4-4.4-3.4-5.6-5.8C147.8,24.3,147.1,21.7,147.1,18.9z M151.7,19c0,3.8,1.1,6.8,3.3,8.9c2.2,2.2,4.9,3.3,8.2,3.3
			c3.3,0,6.1-1.1,8.2-3.3c2.2-2.2,3.2-5.3,3.2-9.3c0-2.6-0.5-4.8-1.4-6.7c-0.9-1.9-2.3-3.4-4-4.4c-1.8-1-3.8-1.6-6-1.6
			c-3.1,0-5.8,1-8.1,3C152.8,10.9,151.7,14.2,151.7,19z"/>
	</g>
</g>
</svg>
