<?xml version="1.0" encoding="utf-8"?>
<!-- Generator: Adobe Illustrator 21.1.0, SVG Export Plug-In . SVG Version: 6.00 Build 0)  -->
<svg version="1.1" id="Camada_1" xmlns="http://www.w3.org/2000/svg" xmlns:xlink="http://www.w3.org/1999/xlink" x="0px" y="0px"
	 viewBox="0 0 30 30" style="enable-background:new 0 0 30 30;" xml:space="preserve">
<style type="text/css">
	.st0{fill:#1D1D1B;}
	.st1{fill:#FFFFFF;}
	.st2{fill:#E5013C;}
	.st3{fill:#DCDCDC;}
</style>
<path class="st0" d="M28.5,11.9c-0.1-0.2-0.4-0.3-0.6-0.3h-7V9.1c0-1.7-0.6-3.3-1.9-4.3c-1.1-0.9-2.5-1.4-4.1-1.4
	c-2.9,0-6,1.9-6,5.6v2.7H2c-0.2,0-0.5,0.1-0.6,0.3c-0.1,0.2-0.2,0.4-0.1,0.6l4.3,13.6c0.1,0.3,0.4,0.5,0.6,0.5h17.3
	c0.3,0,0.6-0.2,0.6-0.5l4.3-13.6C28.7,12.3,28.6,12.1,28.5,11.9z M10.4,8.9c0-2.9,2.4-4.2,4.6-4.2c1.2,0,2.4,0.4,3.2,1.1
	c0.9,0.7,1.4,1.9,1.4,3.3v2.6h-9.2V8.9z M26.8,13.7L23,24.8c-0.1,0.2-0.3,0.4-0.6,0.4h-15c-0.2,0-0.5-0.2-0.6-0.4L3.2,13.7
	c-0.1-0.2,0-0.4,0.1-0.5c0.1-0.2,0.3-0.2,0.5-0.2h22.5c0.2,0,0.4,0.1,0.5,0.2C26.8,13.3,26.9,13.4,26.8,13.7z"/>
</svg>
