<?xml version="1.0" encoding="utf-8"?>
<!-- Generator: Adobe Illustrator 21.0.0, SVG Export Plug-In . SVG Version: 6.00 Build 0)  -->
<svg version="1.1" id="Camada_1" xmlns="http://www.w3.org/2000/svg" xmlns:xlink="http://www.w3.org/1999/xlink" x="0px" y="0px"
	 viewBox="0 0 50 50" style="enable-background:new 0 0 50 50;" xml:space="preserve">
<path d="M29.6,39.1V18.6h-9.1v20.5c0,0.5,0.2,0.8,0.5,1.1s0.8,0.4,1.3,0.4h5.5c0.5,0,1-0.1,1.3-0.4S29.6,39.5,29.6,39.1z M16.5,14.9
	h5.6l-3.6-4.6c-0.5-0.6-1.2-0.9-2-0.9c-0.8,0-1.4,0.3-1.9,0.8c-0.5,0.5-0.8,1.2-0.8,1.9s0.3,1.4,0.8,1.9
	C15.1,14.7,15.8,14.9,16.5,14.9z M36.2,12.2c0-0.8-0.3-1.4-0.8-1.9c-0.5-0.5-1.2-0.8-1.9-0.8c-0.8,0-1.5,0.3-2,0.9l-3.6,4.6h5.5
	c0.8,0,1.4-0.3,1.9-0.8C35.9,13.6,36.2,13,36.2,12.2z M47,19.5v9.1c0,0.3-0.1,0.5-0.3,0.7c-0.2,0.2-0.4,0.3-0.7,0.3h-2.7v11.9
	c0,0.8-0.3,1.4-0.8,1.9s-1.2,0.8-1.9,0.8H9.4c-0.8,0-1.4-0.3-1.9-0.8s-0.8-1.2-0.8-1.9V29.6H4c-0.3,0-0.5-0.1-0.7-0.3
	C3.1,29.1,3,28.9,3,28.7v-9.1c0-0.3,0.1-0.5,0.3-0.7c0.2-0.2,0.4-0.3,0.7-0.3h12.6c-1.8,0-3.3-0.6-4.5-1.9s-1.9-2.8-1.9-4.5
	s0.6-3.3,1.9-4.5s2.8-1.9,4.5-1.9c2,0,3.6,0.7,4.8,2.2l3.7,4.7L28.7,8c1.2-1.5,2.8-2.2,4.8-2.2c1.8,0,3.3,0.6,4.5,1.9
	c1.2,1.2,1.9,2.8,1.9,4.5s-0.6,3.3-1.9,4.5c-1.2,1.2-2.8,1.9-4.5,1.9H46c0.3,0,0.5,0.1,0.7,0.3C46.9,19,47,19.2,47,19.5z"/>
</svg>
