<?xml version="1.0" encoding="utf-8"?>
<!-- Generator: Adobe Illustrator 21.1.0, SVG Export Plug-In . SVG Version: 6.00 Build 0)  -->
<svg version="1.1" id="Camada_1" xmlns="http://www.w3.org/2000/svg" xmlns:xlink="http://www.w3.org/1999/xlink" x="0px" y="0px"
	 viewBox="0 0 30 30" style="enable-background:new 0 0 30 30;" xml:space="preserve">
<style type="text/css">
	.st0{fill:#1D1D1B;}
	.st1{fill:#FFFFFF;}
	.st2{fill:#E5013C;}
	.st3{fill:#DCDCDC;}
</style>
<g transform="translate(0,-952.36218)">
	<path d="M15,978L4.6,967.6c-2.5-2.5-2.5-6.5,0-9c1.2-1.2,2.8-1.9,4.5-1.9c1.7,0,3.3,0.7,4.5,1.9L15,960l1.4-1.4
		c1.2-1.2,2.8-1.9,4.5-1.9c0,0,0,0,0,0c1.7,0,3.3,0.7,4.5,1.9l0,0c2.5,2.5,2.5,6.5,0,9L15,978z M9.1,957.9c-1.4,0-2.7,0.5-3.6,1.5
		c-2,2-2,5.3,0,7.4l9.5,9.6l9.5-9.6c2-2,2-5.3,0-7.4c-1-1-2.3-1.5-3.6-1.5c-1.4,0-2.7,0.5-3.6,1.5l-2.3,2.3l-2.2-2.3
		C11.8,958.4,10.5,957.9,9.1,957.9z"/>
</g>
</svg>
