<?xml version="1.0" encoding="utf-8"?>
<!-- Generator: Adobe Illustrator 21.1.0, SVG Export Plug-In . SVG Version: 6.00 Build 0)  -->
<svg version="1.1" id="Camada_1" xmlns="http://www.w3.org/2000/svg" xmlns:xlink="http://www.w3.org/1999/xlink" x="0px" y="0px"
	 viewBox="0 0 30 30" style="enable-background:new 0 0 30 30;" xml:space="preserve">
<style type="text/css">
	.st0{fill:#1D1D1B;}
	.st1{fill:#FFFFFF;}
	.st2{fill:#E5013C;}
	.st3{fill:#DCDCDC;}
</style>
<g id="XMLID_12_">
	<path id="XMLID_15_" class="st1" d="M24.1,8.7C23.9,8.1,23.5,7.5,23,7c-0.5-0.5-1.1-0.9-1.7-1.1C20.7,5.7,20,5.5,19,5.4
		c-1,0-1.4-0.1-4-0.1s-2.9,0-4,0.1c-1,0-1.7,0.2-2.3,0.4C8.1,6.1,7.5,6.5,7,7S6.1,8.1,5.9,8.7C5.7,9.3,5.5,10,5.4,11
		c0,1-0.1,1.4-0.1,4s0,2.9,0.1,4c0,1,0.2,1.7,0.4,2.3C6.1,21.9,6.5,22.5,7,23c0.5,0.5,1.1,0.9,1.7,1.1c0.6,0.2,1.3,0.4,2.3,0.4
		c1,0,1.4,0.1,4,0.1s2.9,0,4-0.1c1,0,1.7-0.2,2.3-0.4c0.6-0.2,1.2-0.6,1.7-1.1c0.5-0.5,0.9-1.1,1.1-1.7c0.2-0.6,0.4-1.3,0.4-2.3
		c0-1,0.1-1.4,0.1-4s0-2.9-0.1-4C24.5,10,24.3,9.3,24.1,8.7z M22.8,18.9c0,0.9-0.2,1.4-0.3,1.8c-0.2,0.4-0.4,0.8-0.7,1.1
		c-0.3,0.3-0.7,0.5-1.1,0.7c-0.3,0.1-0.8,0.3-1.8,0.3c-1,0-1.3,0.1-3.9,0.1s-2.9,0-3.9-0.1c-0.9,0-1.4-0.2-1.8-0.3
		c-0.4-0.2-0.8-0.4-1.1-0.7c-0.3-0.3-0.5-0.7-0.7-1.1c-0.1-0.3-0.3-0.8-0.3-1.8c0-1-0.1-1.3-0.1-3.9s0-2.9,0.1-3.9
		c0-0.9,0.2-1.4,0.3-1.8c0.2-0.4,0.4-0.8,0.7-1.1c0.3-0.3,0.7-0.5,1.1-0.7c0.3-0.1,0.8-0.3,1.8-0.3c1,0,1.3-0.1,3.9-0.1
		s2.9,0,3.9,0.1c0.9,0,1.4,0.2,1.8,0.3c0.4,0.2,0.8,0.4,1.1,0.7c0.3,0.3,0.5,0.7,0.7,1.1c0.1,0.3,0.3,0.8,0.3,1.8
		c0,1,0.1,1.3,0.1,3.9S22.9,17.9,22.8,18.9z"/>
	<path id="XMLID_14_" class="st1" d="M15,10.1c-2.7,0-4.9,2.2-4.9,4.9s2.2,4.9,4.9,4.9c2.7,0,4.9-2.2,4.9-4.9S17.7,10.1,15,10.1z
		 M15,18.2c-1.8,0-3.2-1.4-3.2-3.2c0-1.8,1.4-3.2,3.2-3.2c1.8,0,3.2,1.4,3.2,3.2C18.2,16.8,16.8,18.2,15,18.2z"/>
	<circle id="XMLID_13_" class="st1" cx="20.1" cy="9.9" r="1.2"/>
</g>
</svg>
