<?xml version="1.0" encoding="utf-8"?>
<!-- Generator: Adobe Illustrator 21.1.0, SVG Export Plug-In . SVG Version: 6.00 Build 0)  -->
<svg version="1.1" id="Camada_1" xmlns="http://www.w3.org/2000/svg" xmlns:xlink="http://www.w3.org/1999/xlink" x="0px" y="0px"
	 viewBox="0 0 30 30" style="enable-background:new 0 0 30 30;" xml:space="preserve">
<style type="text/css">
	.st0{fill:#1D1D1B;}
	.st1{fill:#FFFFFF;}
	.st2{fill:#E5013C;}
	.st3{fill:#DCDCDC;}
</style>
<g>
	<path class="st1" d="M21,15.7c0-2.8,2.3-4.1,2.4-4.2c-1.3-1.9-3.3-2.2-4-2.2c-1.7-0.2-3.4,1-4.2,1c-0.9,0-2.2-1-3.6-1
		c-1.9,0-3.6,1.1-4.6,2.8c-2,3.4-0.5,8.4,1.4,11.1c0.9,1.3,2,2.9,3.5,2.8c1.4-0.1,1.9-0.9,3.6-0.9s2.2,0.9,3.7,0.9
		c1.5,0,2.5-1.4,3.4-2.7c1.1-1.6,1.5-3.1,1.5-3.1C24,20.2,21.1,19,21,15.7z"/>
	<path class="st1" d="M18.3,7.5c0.8-0.9,1.3-2.2,1.2-3.5c-1.1,0-2.5,0.7-3.3,1.7C15.4,6.4,14.8,7.8,15,9C16.2,9.1,17.5,8.4,18.3,7.5
		z"/>
</g>
</svg>
