<?xml version="1.0" encoding="utf-8"?>
<!-- Generator: Adobe Illustrator 21.1.0, SVG Export Plug-In . SVG Version: 6.00 Build 0)  -->
<svg version="1.1" id="Camada_1" xmlns="http://www.w3.org/2000/svg" xmlns:xlink="http://www.w3.org/1999/xlink" x="0px" y="0px"
	 viewBox="0 0 64 46.8" style="enable-background:new 0 0 64 46.8;" xml:space="preserve">
<style type="text/css">
	.st0{fill:#EF002F;}
	.st1{fill:#666666;}
	.st2{fill:#CCCCCC;}
	.st3{fill-rule:evenodd;clip-rule:evenodd;fill:#CCCCCC;}
</style>
<g>
	<path class="st2" d="M20.8,8C13.3,9.1,7.4,15.5,7.4,23.4s5.8,14.3,13.4,15.4V8z"/>
	<path class="st2" d="M25.3,8v30.8c7.6-1.1,13.4-7.5,13.4-15.4S32.9,9.1,25.3,8z"/>
	<path class="st2" d="M40.9,1.1H23.1C10.7,1.1,0.8,11,0.8,23.4s10,22.3,22.3,22.3h17.9c12.3,0,22.3-10,22.3-22.3S53.3,1.1,40.9,1.1z
		 M23.1,43.5C12,43.5,3,34.5,3,23.4S12,3.3,23.1,3.3s20.1,9,20.1,20.1S34.1,43.5,23.1,43.5z"/>
</g>
</svg>
