<?xml version="1.0" encoding="utf-8"?>
<!-- Generator: Adobe Illustrator 21.1.0, SVG Export Plug-In . SVG Version: 6.00 Build 0)  -->
<svg version="1.1" id="Camada_1" xmlns="http://www.w3.org/2000/svg" xmlns:xlink="http://www.w3.org/1999/xlink" x="0px" y="0px"
	 viewBox="0 0 64 39" style="enable-background:new 0 0 64 39;" xml:space="preserve">
<style type="text/css">
	.st0{fill:#EF002F;}
	.st1{fill:#666666;}
	.st2{fill:#CCCCCC;}
	.st3{fill-rule:evenodd;clip-rule:evenodd;fill:#CCCCCC;}
</style>
<g>
	<g>
		<path class="st2" d="M13.9,22.1c0,0.5,0.2,0.7,0.7,0.7c0.9,0,1.3-0.7,1.5-1.8c-0.2,0-0.2,0-0.5,0C14.5,21,13.9,21.3,13.9,22.1z"/>
		<path class="st2" d="M45.3,22.1c0,0.5,0.2,0.7,0.7,0.7c0.9,0,1.3-0.7,1.5-1.8c-0.2,0-0.2,0-0.5,0C45.8,21,45.3,21.3,45.3,22.1z"/>
		<path class="st2" d="M30.3,18.4c-0.6,0-1.1,0.5-1.2,1.3h2.2C31.3,19.5,31.6,18.4,30.3,18.4z"/>
		<path class="st2" d="M57,18.6c-0.9,0-1.6,1.1-1.6,2.6c0,1,0.4,1.5,1,1.5c1,0,1.6-1.1,1.6-2.6C58.1,19.1,57.7,18.6,57,18.6z"/>
		<path class="st2" d="M44.2,1.2c-4.7,0-9,1.7-12.3,4.7c-3.2-2.9-7.5-4.7-12.1-4.7C9.7,1.2,1.5,9.4,1.5,19.5s8.2,18.3,18.3,18.3
			c4.7,0,9-1.7,12.1-4.7c3.2,2.9,7.5,4.7,12.3,4.7c10.1,0,18.3-8.2,18.3-18.3S54.3,1.2,44.2,1.2z M9.3,24.4l1.1-7.1l-2.6,7.1H6.4
			l-0.1-7.1l-1.2,7.1H3.2l1.6-9.3h2.8l0.1,5.8l2-5.8h3.1l-1.6,9.3H9.3z M15.9,24.4v-0.7c-0.5,0.6-1.2,0.9-2.1,0.9
			c-1.1,0-1.8-0.9-1.8-2.1c0-1.8,1.2-2.9,3.4-2.9c0.2,0,0.5,0,0.9,0c0.1-0.2,0.1-0.4,0.1-0.5c0-0.5-0.4-0.7-1.2-0.7
			c-1,0-1.7,0.2-2.1,0.4c0-0.1,0.2-1.7,0.2-1.7c1-0.2,1.6-0.4,2.3-0.4c1.7,0,2.6,0.7,2.6,2.2c0,0.4,0,0.9-0.1,1.5
			c-0.1,1.1-0.5,3.4-0.6,4C17.2,24.4,15.9,24.4,15.9,24.4z M21.8,19.9c1,0.5,1.3,1.1,1.3,2.1c0,1.7-1,2.6-3.1,2.6
			c-1.2,0-1.6-0.1-2.1-0.2c0-0.1,0.2-1.7,0.2-1.7c0.6,0.2,1.2,0.2,1.8,0.2c0.7,0,1.1-0.2,1.1-0.7c0-0.4-0.1-0.5-1-0.9
			c-1.1-0.5-1.5-1.1-1.5-2.1c0-1.3,0.7-2.6,2.9-2.6c0.5,0,1.2,0.1,1.7,0.1l-0.2,1.7c-0.5-0.1-1-0.1-1.5-0.1c-0.6,0-1,0.2-1,0.6
			C20.8,19.4,20.9,19.5,21.8,19.9z M26.1,22.7c0.2,0,0.4,0,0.5-0.1l-0.2,1.7c-0.5,0.1-1,0.2-1.5,0.2c-1,0-1.6-0.6-1.6-1.7
			c0-0.4,0.1-1.2,0.2-2c0.1-0.7,0.9-5.1,0.9-5.1h2l-0.2,1.1h1l-0.2,1.8h-1c-0.2,1.5-0.6,3.2-0.6,3.4C25.4,22.4,25.7,22.7,26.1,22.7z
			 M30.7,22.8c0.7,0,1.3-0.1,2.1-0.5l-0.4,1.8c-0.7,0.2-1.3,0.2-2.1,0.2c-2.2,0-3.3-1.1-3.3-3.3c0-2.6,1.5-4.5,3.4-4.5
			c1.6,0,2.7,1.1,2.7,2.7c0,0.6-0.1,1.1-0.2,1.8H29C28.9,22.3,29.6,22.8,30.7,22.8z M35.1,24.4h-2l0.1-0.5c0.4-2.3,0.7-4.7,1-7h1.8
			c0,0.4-0.1,0.7-0.1,1.1c0.6-0.9,1.1-1.3,2-1.2c-0.2,0.4-0.6,1.2-0.7,2.2C36,18.9,35.9,19.7,35.1,24.4z M42.7,24.3
			c-0.7,0.2-1.2,0.2-1.7,0.2c-2.1,0-3.4-1.6-3.4-4c0-3.3,1.8-5.6,4.5-5.6c0.9,0,1.8,0.4,2.2,0.5l-0.4,2c-0.7-0.4-1.2-0.5-1.7-0.5
			c-1.5,0-2.6,1.5-2.6,3.4c0,1.3,0.7,2.2,1.8,2.2c0.5,0,1-0.1,1.7-0.5L42.7,24.3z M48.9,24.4c-0.2,0-1.6,0-1.6,0v-0.7
			c-0.5,0.6-1.2,0.9-2.1,0.9c-1.1,0-1.8-0.9-1.8-2.1c0-1.8,1.2-2.9,3.4-2.9c0.2,0,0.5,0,0.9,0c0.1-0.2,0.1-0.4,0.1-0.5
			c0-0.5-0.4-0.7-1.2-0.7c-1,0-1.7,0.2-2.1,0.4c0-0.1,0.2-1.7,0.2-1.7c1-0.2,1.6-0.4,2.3-0.4c1.7,0,2.6,0.7,2.6,2.2
			c0,0.4,0,0.9-0.1,1.5C49.2,21.5,48.9,23.8,48.9,24.4z M51.6,24.4h-2l0.1-0.5c0.4-2.3,0.7-4.7,1-7h1.8c0,0.4-0.1,0.7-0.1,1.1
			c0.6-0.9,1.1-1.3,2-1.2c-0.2,0.4-0.6,1.2-0.7,2.2C52.4,18.9,52.2,19.7,51.6,24.4z M57.4,24.4l0.1-0.7c-0.5,0.6-1.1,0.9-1.8,0.9
			c-1.5,0-2.5-1.2-2.5-3.2c0-2.5,1.5-4.7,3.2-4.7c0.7,0,1.3,0.4,1.8,1l0.5-2.7h2l-1.5,9.3h-1.8V24.4z"/>
	</g>
</g>
</svg>
