<?xml version="1.0" encoding="utf-8"?>
<!-- Generator: Adobe Illustrator 21.1.0, SVG Export Plug-In . SVG Version: 6.00 Build 0)  -->
<svg version="1.1" id="Camada_1" xmlns="http://www.w3.org/2000/svg" xmlns:xlink="http://www.w3.org/1999/xlink" x="0px" y="0px"
	 viewBox="0 0 64 23.8" style="enable-background:new 0 0 64 23.8;" xml:space="preserve">
<style type="text/css">
	.st0{fill:#EF002F;}
	.st1{fill:#666666;}
	.st2{fill:#CCCCCC;}
	.st3{fill-rule:evenodd;clip-rule:evenodd;fill:#CCCCCC;}
</style>
<g>
	<g>
		<polygon class="st2" points="27,2.7 23,21.3 27.9,21.3 31.8,2.7 		"/>
		<path class="st2" d="M19.9,2.7l-5,12.6L12.8,4.5c-0.2-1.2-1.2-1.8-2.2-1.8H2.4L2.3,3.2C4,3.5,5.8,4.2,7,4.8
			c0.7,0.4,0.9,0.7,1.1,1.6L12,21.2h5.1L25,2.6h-5V2.7z"/>
		<path class="st2" d="M58.1,2.7h-4.2c-1,0-1.7,0.5-2.1,1.3l-7.2,17.3h5l1-2.8h6.1l0.6,2.8h4.4L58.1,2.7z M52.2,14.7l2.6-7l1.5,7
			H52.2z"/>
		<path class="st2" d="M38.2,7.8c0-0.6,0.6-1.3,2.1-1.6c0.7-0.1,2.6-0.1,4.8,0.9l0.9-3.9c-1.1-0.4-2.7-0.9-4.5-0.9
			c-4.8,0-8.1,2.6-8.1,6.1c0,2.7,2.5,4.2,4.2,5c1.8,0.9,2.5,1.5,2.5,2.3c0,1.2-1.5,1.8-2.9,1.8c-2.5,0-3.8-0.6-4.9-1.2l-0.9,4
			c1.1,0.5,3.2,1,5.4,1c5,0,8.3-2.5,8.3-6.4C44.9,10.4,38.1,10,38.2,7.8z"/>
	</g>
</g>
</svg>
