<?xml version="1.0" encoding="utf-8"?>
<!-- Generator: Adobe Illustrator 21.1.0, SVG Export Plug-In . SVG Version: 6.00 Build 0)  -->
<svg version="1.1" id="Camada_1" xmlns="http://www.w3.org/2000/svg" xmlns:xlink="http://www.w3.org/1999/xlink" x="0px" y="0px"
	 viewBox="0 0 64 50.9" style="enable-background:new 0 0 64 50.9;" xml:space="preserve">
<style type="text/css">
	.st0{fill:#EF002F;}
	.st1{fill:#666666;}
	.st2{fill:#CCCCCC;}
	.st3{fill-rule:evenodd;clip-rule:evenodd;fill:#CCCCCC;}
</style>
<g id="Layer_x0020_1_4_">
	<path class="st2" d="M57.5,6V45H56V6L57.5,6L57.5,6z M54.4,6V45H50V6L54.4,6L54.4,6z M47.7,6V45h-1.3V6L47.7,6L47.7,6z M45,6V45
		h-2.7V6L45,6L45,6z M40.1,6V45h-4.5V6L40.1,6L40.1,6z M34.1,6V45h-1.5V6L34.1,6L34.1,6z M60.3,0.5H3.7C2.8,0.5,2,0.9,1.4,1.5
		S0.5,2.8,0.5,3.7v43.6c0,0.9,0.4,1.7,0.9,2.2c0.6,0.6,1.4,0.9,2.2,0.9h56.6c0.9,0,1.7-0.4,2.2-0.9c0.6-0.6,0.9-1.4,0.9-2.2V3.7
		c0-0.9-0.4-1.7-0.9-2.2C62,0.9,61.2,0.5,60.3,0.5z M30.4,6V45h-3.5V6L30.4,6L30.4,6z M24.7,6V45h-3.5V6L24.7,6L24.7,6z M19,6V45
		h-1.5V6L19,6L19,6z M15.9,6V45h-4.5V6L15.9,6L15.9,6z M9.2,6V45H6.5V6L9.2,6L9.2,6z"/>
</g>
</svg>
