<?xml version="1.0" encoding="utf-8"?>
<!-- Generator: Adobe Illustrator 21.1.0, SVG Export Plug-In . SVG Version: 6.00 Build 0)  -->
<svg version="1.1" id="Camada_1" xmlns="http://www.w3.org/2000/svg" xmlns:xlink="http://www.w3.org/1999/xlink" x="0px" y="0px"
	 viewBox="0 0 64 32.7" style="enable-background:new 0 0 64 32.7;" xml:space="preserve">
<style type="text/css">
	.st0{fill:#EF002F;}
	.st1{fill:#666666;}
	.st2{fill:#CCCCCC;}
	.st3{fill-rule:evenodd;clip-rule:evenodd;fill:#CCCCCC;}
</style>
<g>
	<path class="st3" d="M13.7,6C19.9,6,25,10.3,26.4,16l-5.2,2.3l0,0l-5.4,2.4L2.9,26.2c-1.4-2.1-2.2-4.5-2.2-7.2
		C0.7,11.9,6.6,6,13.7,6L13.7,6z M19.3,14.1l-13,5.6c0-0.2,0-0.5,0-0.7c0-4.1,3.3-7.4,7.4-7.4C16,11.6,18,12.6,19.3,14.1L19.3,14.1z
		"/>
	<path class="st3" d="M22.8,28.3c-4.7,4.4-10.8,4.9-16.2,1.6l3.1-4.6c3.1,1.8,6.2,1.5,9.3-0.9L22.8,28.3L22.8,28.3z"/>
	<path class="st3" d="M28.1,25.1l0-24.6h4.7v23.9c0,0.2,0,0.4,0.3,0.5l4.1,1.6l-1.8,4.7l-4.7-2C28.7,28.5,28.1,27.4,28.1,25.1
		L28.1,25.1z"/>
	<g>
		<path class="st3" d="M45.6,24.7c-1.7-1.4-2.9-3.5-2.9-5.9c0-2.1,0.9-4,2.3-5.4l-3-4.9c-3,2.4-5,6.1-5,10.3c0,4.5,2.3,8.4,5.7,10.8
			L45.6,24.7z"/>
		<path class="st3" d="M47.7,11.9c0.8-0.3,1.6-0.4,2.5-0.4c3.2,0,5.9,2,6.9,4.8l5.8-0.5c-1.4-5.7-6.6-10-12.7-10
			c-1.7,0-3.4,0.3-4.9,1L47.7,11.9z"/>
		<path class="st3" d="M57.6,19.2c-0.2,3.9-3.4,7.1-7.4,7.1c-0.6,0-1.2-0.1-1.8-0.2l-2.3,5.2c1.3,0.4,2.6,0.6,4.1,0.6
			c7,0,12.8-5.6,13.1-12.5L57.6,19.2z"/>
	</g>
</g>
</svg>
