<?xml version="1.0" encoding="utf-8"?>
<!-- Generator: Adobe Illustrator 21.1.0, SVG Export Plug-In . SVG Version: 6.00 Build 0)  -->
<svg version="1.1" id="Camada_1" xmlns="http://www.w3.org/2000/svg" xmlns:xlink="http://www.w3.org/1999/xlink" x="0px" y="0px"
	 viewBox="0 0 64 32.8" style="enable-background:new 0 0 64 32.8;" xml:space="preserve">
<style type="text/css">
	.st0{fill:#EF002F;}
	.st1{fill:#666666;}
	.st2{fill:#CCCCCC;}
	.st3{fill-rule:evenodd;clip-rule:evenodd;fill:#CCCCCC;}
</style>
<g>
	<g>
		<path class="st2" d="M34,20.5h-2.1v1.8H34c0.6,0,1-0.3,1-0.9C34.9,20.8,34.5,20.5,34,20.5z"/>
		<polygon class="st2" points="30.3,25.4 30.3,19.8 27.8,22.6 		"/>
		<path class="st2" d="M34.1,8.6h-2v1.5h2c0.3,0,0.6,0,0.8-0.1c0.2-0.1,0.3-0.3,0.3-0.6c0-0.3-0.1-0.5-0.3-0.6
			C34.7,8.6,34.4,8.6,34.1,8.6z"/>
		<polygon class="st2" points="19.9,20.5 19.9,21.8 23.5,21.8 23.5,23.2 19.9,23.2 19.9,24.6 23.9,24.6 25.7,22.6 23.9,20.5 		"/>
		<path class="st2" d="M41.8,20.7c-0.2-0.1-0.5-0.1-0.8-0.1h-2v1.6l2,0c0.3,0,0.5,0,0.8-0.1c0.2-0.1,0.3-0.4,0.3-0.7
			S42,20.8,41.8,20.7z"/>
		<path class="st2" d="M0.9,1.1v30.5h62.2v-7.8c0,1.5-0.9,2.2-2.5,2.2h-3.1v-1.5h3.1c0.3,0,0.5,0,0.6-0.1c0.1-0.1,0.2-0.2,0.2-0.4
			c0-0.2-0.1-0.4-0.2-0.5c-0.1-0.1-0.3-0.1-0.6-0.1c-1.5-0.1-3.4,0-3.4-2.1c0-1,0.6-2.1,2.3-2.1h3.2v1.5h-3c-0.3,0-0.5,0-0.6,0.1
			c-0.1,0.1-0.2,0.3-0.2,0.5c0,0.2,0.1,0.4,0.3,0.5c0.2,0.1,0.4,0.1,0.6,0.1h0.9c0.9,0,1.5,0.2,1.9,0.5c0.3,0.3,0.5,0.8,0.5,1.5V1.1
			H0.9z M38,7.1h1.6v6.9H38V7.1z M24,7.1h5.4v1.4h-3.7v1.2h3.7v1.4h-3.7v1.4h3.7v1.4H24V7.1z M15.1,8.6v5.5h-3.3l-0.6-1.5H7.9
			l-0.6,1.5H5.5l2.9-6.9h2.4l2.7,6.5V7.1h2.6l2.1,4.7l2-4.7h2.6v6.9h-1.6V8.6l-2.4,5.5h-1.4L15.1,8.6z M33.9,23.7h-2V26h-3.1l-2-2.3
			L24.7,26h-6.4v-6.9h6.5l2,2.3l2.1-2.3H34c1.2,0,2.7,0.4,2.7,2.3C36.7,23.3,35.3,23.7,33.9,23.7z M36.7,11.5
			c0.2,0.3,0.3,0.6,0.3,1.2v1.4h-1.6v-0.9c0-0.4,0-1-0.2-1.3c-0.2-0.2-0.6-0.3-1.2-0.3h-1.7v2.5h-1.6V7.1h3.7c0.8,0,1.4,0,1.9,0.3
			C36.7,7.8,37,8.2,37,9c0,1.1-0.7,1.6-1.2,1.8C36.2,11,36.5,11.3,36.7,11.5z M43.6,23.4c0.2,0.3,0.2,0.6,0.2,1.3V26h-1.6v-0.8
			c0-0.4,0-1-0.3-1.4c-0.2-0.2-0.6-0.3-1.2-0.3h-1.7V26h-1.6v-6.9h3.7c0.8,0,1.4,0,2,0.3c0.5,0.3,0.8,0.7,0.8,1.5
			c0,1.1-0.7,1.7-1.2,1.8C43.1,23,43.4,23.2,43.6,23.4z M50.2,20.5h-3.8v1.3h3.7v1.4h-3.7v1.4h3.8V26h-5.4v-6.9h5.4V20.5z M54.3,26
			h-3.1v-1.5h3.1c0.3,0,0.5,0,0.6-0.1c0.1-0.1,0.2-0.2,0.2-0.4c0-0.2-0.1-0.4-0.2-0.5c-0.1-0.1-0.3-0.1-0.6-0.1
			c-1.5-0.1-3.4,0-3.4-2.1c0-1,0.6-2.1,2.3-2.1h3.2v1.5h-3c-0.3,0-0.5,0-0.6,0.1c-0.2,0.1-0.2,0.3-0.2,0.5c0,0.2,0.1,0.4,0.3,0.5
			c0.2,0.1,0.4,0.1,0.6,0.1h0.9c0.9,0,1.5,0.2,1.9,0.5c0.3,0.3,0.5,0.8,0.5,1.5C56.8,25.3,55.9,26,54.3,26z M58.6,14.1L58.6,14.1
			h-2.3l-3-5.2v5.2H50l-0.6-1.5h-3.4l-0.6,1.5h-1.9c-0.8,0-1.8-0.2-2.4-0.8c-0.5-0.6-0.8-1.4-0.8-2.6c0-1,0.1-2,0.9-2.7
			c0.5-0.5,1.3-0.8,2.4-0.8h1.5v1.5h-1.5c-0.6,0-0.9,0.1-1.2,0.4C42.2,9.3,42,9.9,42,10.6c0,0.7,0.1,1.3,0.4,1.6
			c0.2,0.2,0.7,0.3,1.1,0.3h0.7l2.3-5.5H49l2.7,6.5V7.1h2.5L57,12V7.1h1.6V14.1z"/>
		<polygon class="st2" points="8.4,11.1 10.6,11.1 9.5,8.3 		"/>
		<polygon class="st2" points="46.6,11.1 48.8,11.1 47.7,8.3 		"/>
	</g>
</g>
</svg>
