<svg
  version="1.1"
  viewBox="0 0 2000 889"
  xmlns="http://www.w3.org/2000/svg"
  xmlns:cc="http://creativecommons.org/ns#"
  xmlns:dc="http://purl.org/dc/elements/1.1/"
  xmlns:rdf="http://www.w3.org/1999/02/22-rdf-syntax-ns#"
>
  <style type="text/css">
    .st0{fill:#EF002F;}
    .st1{fill:#666666;}
    .st2{fill:#CCCCCC;}
    .st3{fill-rule:evenodd;clip-rule:evenodd;fill:#CCCCCC;}
  </style>
  <path
    class="st2"
    d="m836.75 877.06-826.25 0.2946v-1.9885c0-1.0937 1.3178-8.185 2.9284-15.758 1.6106-7.5733 4.1146-19.62 5.5644-26.77 1.4497-7.15 3.9285-19.3 5.5083-27 1.5798-7.7 4.2046-20.525 5.8329-28.5s4.1791-20.575 5.6684-28 3.9757-19.575 5.5255-27c1.5497-7.425 4.1918-20.25 5.8714-28.5 1.6795-8.25 4.2326-20.85 5.6735-28 1.441-7.15 3.7309-18.175 5.0887-24.5s3.0888-14.875 3.8466-19c0.7579-4.125 3.2102-16.275 5.4496-27 2.2395-10.725 4.7118-22.875 5.4941-27s3.2657-16.275 5.5186-27c2.253-10.725 4.728-22.875 5.5-27 0.7721-4.125 3.2608-16.275 5.5306-27s4.7196-22.65 5.444-26.5 2.7085-13.75 4.409-22c1.7006-8.25 4.9185-23.775 7.1508-34.5 2.2324-10.725 6.0507-29.4 8.4851-41.5s5.3435-26.5 6.4646-32c1.1212-5.5 3.1486-15.4 4.5054-22s3.8206-18.525 5.475-26.5c1.6545-7.975 4.3463-21.025 5.9819-29s4.1561-20.35 5.6009-27.5c1.4449-7.15 3.9109-19.075 5.48-26.5s4.2682-20.475 5.9979-29 4.6273-21.575 6.439-29c1.8118-7.425 4.3732-16.425 5.692-20 1.3189-3.575 4.96-11.325 8.0914-17.222l5.6934-10.722 5.1758-6.7784c2.8467-3.7281 7.9291-9.6193 11.294-13.091 3.3651-3.4722 9.0435-8.6969 12.618-11.61 3.575-2.9136 8.75-6.8456 11.5-8.7379 2.75-1.8923 8.15-5.2051 12-7.3618 3.85-2.1567 9.25-4.981 12-6.2761s8.375-3.6589 12.5-5.2527c4.125-1.5939 12-4.2655 17.5-5.9369s15.824-4.1908 22.942-5.5986c7.1183-1.4078 18.368-3.2881 25-4.1784l12.058-1.6188 826.75-0.31475 826.75-0.31474v1.9874c0 1.0931-1.3264 8.1838-2.9476 15.757-1.6212 7.5734-4.3301 20.52-6.0197 28.77-1.6897 8.25-4.156 20.175-5.4807 26.5-1.3248 6.325-3.8327 18.475-5.5731 27-1.7405 8.525-4.4183 21.575-5.9506 29-1.5324 7.425-4.0131 19.575-5.5127 27-1.4997 7.425-3.9955 19.575-5.5462 27s-3.955 19.125-5.3429 26c-1.3878 6.875-3.9001 19.25-5.5828 27.5-1.6826 8.25-4.3855 21.3-6.0064 29s-4.09 19.625-5.487 26.5-3.9111 19.25-5.5869 27.5-4.3726 21.3-5.993 29c-1.6203 7.7-4.0353 19.4-5.3667 26-1.3313 6.6-3.8363 18.975-5.5666 27.5s-4.2525 20.9-5.6049 27.5-3.7683 18.3-5.3687 26c-1.6003 7.7-4.3359 20.975-6.079 29.5s-4.2383 20.675-5.5449 27-3.7519 18.25-5.434 26.5c-1.6822 8.25-4.3585 21.3-5.9475 29-1.5889 7.7-4.081 19.85-5.5379 27s-3.9894 19.525-5.6278 27.5-4.3143 21.025-5.9466 29c-1.6322 7.975-4.0783 19.9-5.4359 26.5s-3.8392 18.75-5.5147 27c-1.6756 8.25-4.4013 21.251-6.0572 28.891l-3.0107 13.891-3.5878 9.6093c-1.9734 5.2851-4.9395 12.309-6.5915 15.609-1.6519 3.3-5.0168 9.1222-7.4775 12.938-2.4606 3.8161-5.8906 8.7058-7.6222 10.866-1.7316 2.1603-6.9434 7.7372-11.582 12.393l-8.4334 8.4653-8.1155 5.7677c-4.4636 3.1722-9.2715 6.3981-10.684 7.1686s-6.7909 3.5153-11.951 6.0996c-5.1601 2.5843-12.45 5.8731-16.199 7.3084s-11.174 3.8789-16.5 5.4301-11.034 3.0788-12.684 3.3946-7.3779 1.501-12.729 2.6338-16.151 2.8251-24 3.7607l-14.271 1.7011-826.25 0.2946zm-293.97-213.72h21.501l0.60699-1.5818c0.33385-0.87 0.60699-2.9153 0.60699-4.5452s0.70873-7.5556 1.575-13.168c0.86623-5.6127 2.8991-18.53 4.5175-28.705s4.0417-25.475 5.3851-34c1.3434-8.525 2.983-19.438 3.6435-24.25s1.4668-8.75 1.7916-8.75c0.32489 0 1.7149 2.1265 3.089 4.7256l2.4983 4.7257 5.5436 5.5854 5.5436 5.5854 6.8237 2.7317 6.8237 2.7317 8.1326 1.0543 8.1326 1.0542 10.323-0.6333 10.323-0.6333 11.177-2.8925 11.177-2.8925 6-2.7387c3.3-1.5063 9.15-4.7904 13-7.298l7-4.5594 6.5267-6.5232c3.5897-3.5877 8.6522-9.3407 11.25-12.784 2.5978-3.4436 4.7233-6.5126 4.7233-6.8198 0-0.3073 1.2763-2.4398 2.8363-4.7388 1.56-2.2991 4.7525-8.6802 7.0945-14.18 2.342-5.5 6.0023-15.4 8.1338-22l3.8756-12 2.0033-10.394c1.1018-5.717 2.5192-15.167 3.1498-21l1.1466-10.606-0.66218-9-0.66218-9-2.0867-9-2.0867-9-3.3778-6.7384-3.3778-6.7384-6.5247-6.9165-6.5247-6.9166-7.7186-3.9895-7.7186-3.9896-8.5-2.0351-8.5-2.0351-8.5-0.624-8.5-0.6239-9.4686 1.0881-9.4686 1.088-7.7283 1.9733-7.7283 1.9732-6.7138 3.1075c-3.6926 1.7091-9.0656 4.6119-11.94 6.4507-2.8745 1.8388-5.8396 3.9544-6.5892 4.7013-0.74963 0.747-2.5443 2.1307-3.9882 3.0748l-2.6252 1.7167 1.8358-8.7833c1.0097-4.8308 1.8536-9.3457 1.8752-10.033l0.0394-1.25h-18.333-18.333l-3.2148 20.25c-1.7681 11.138-4.5598 28.35-6.2037 38.25-1.6439 9.9-4.1229 24.75-5.5089 33-1.386 8.25-3.8581 22.875-5.4937 32.5s-4.3389 24.925-6.0074 34c-1.6685 9.075-4.1129 22.35-5.4319 29.5-1.319 7.15-3.8016 20.65-5.5168 30-1.7152 9.35-4.4716 24.2-6.1253 33-1.6537 8.8-4.3449 22.75-5.9804 31s-3.2196 16.012-3.5203 17.25l-0.54667 2.25h21.501zm92.564-115.62-8.3489 0.5019-5.4573-0.9633-5.4573-0.9634-5.5427-2.5306-5.5427-2.5306-3.8723-3.6978-3.8723-3.6977-2.2351-5c-1.2293-2.75-2.8083-7.4216-3.5089-10.381l-1.2738-5.3812 0.51035-8.6188 0.51035-8.6187 2.5766-13.5c1.4172-7.425 3.9617-21.375 5.6546-31s4.2559-23.728 5.6957-31.34l2.6178-13.84 5.7325-4.7706c3.1529-2.6238 8.1472-6.1404 11.099-7.8146l5.3661-3.044 7-2.1668 7-2.1668 9-0.5284 9-0.5284 7.3282 1.5619 7.3282 1.5619 5.1718 2.3818 5.1718 2.3818 4.3367 4.3601 4.3367 4.36 2.3396 4.617c1.2868 2.5394 3.0942 7.5099 4.0164 11.046l1.6768 6.4286-0.51362 19-0.51363 19-2.5682 11.23c-1.4125 6.1768-4.1014 15.627-5.9754 21l-3.4071 9.7696-4.1726 7.9084c-2.2949 4.3497-5.8338 10.228-7.8641 13.062-2.0304 2.8344-5.2666 6.5061-7.1916 8.1592s-5.1488 4.2367-7.1641 5.7412l-3.6641 2.7354-8.487 2.8866-8.487 2.8867-8.3489 0.5019zm207.65 27.491l11 0.1257 11-1.0033c6.05-0.5518 15.95-1.7006 22-2.5528 6.05-0.8523 16.501-2.76 23.225-4.2394l12.225-2.6898 0.60889-4.5065c0.33489-2.4786 1.7079-9.8572 3.051-16.397l2.4422-11.89-0.53884-0.5388-0.53883-0.5389-3.7374 1.805c-2.0556 0.9927-8.458 3.3607-14.228 5.2623l-10.49 3.4573-11.01 2.1327-11.01 2.1327-17.5 0.034-17.5 0.034-6-1.9162c-3.3-1.0539-8.1537-2.9822-10.786-4.285l-4.7859-2.3689-3.95-3.5685-3.95-3.5686-3.0819-5.3866-3.0819-5.3866-1.9322-6.7566-1.9322-6.7566-0.0138-12.503-0.0138-12.503 1.7154-11.154 1.7154-11.154 15.048-0.703 15.048-0.7031 55.626 0.3572 55.626 0.3572 1.6796-7.1247c0.92375-3.9186 2.336-12.019 3.1384-18l1.4589-10.875 0.0308-9.1482 0.0308-9.1482-1.5839-6.8295-1.5839-6.8295-2.6189-4.5223c-1.4404-2.4872-3.9783-6.0918-5.6398-8.0101s-4.6282-4.6229-6.5927-6.0102c-1.9645-1.3873-5.8218-3.7187-8.5718-5.1807l-5-2.6584-8.7362-2.1055-8.7362-2.1055-10.764-1.0291-10.764-1.0292-10 0.6512-10 0.6512-12 2.3042-12 2.3043-7.5 2.9987c-4.125 1.6493-10.425 4.6569-14 6.6836s-8.525 5.3258-11 7.3313c-2.475 2.0054-6.7602 5.9043-9.5227 8.6641-2.7625 2.7598-6.8487 7.7178-9.0806 11.018s-5.6533 9.15-7.6032 13c-1.9499 3.85-4.4908 9.25-5.6463 12s-3.2554 8.375-4.6663 12.5c-1.4109 4.125-3.6288 12-4.9285 17.5s-3.0807 14.554-3.9578 20.119l-1.5946 10.12 0.0148 14.881 0.0148 14.881 1.5199 6.5c0.83595 3.575 2.4343 8.975 3.5519 12 1.1176 3.025 3.1842 7.525 4.5924 10 1.4082 2.475 4.4158 6.4599 6.6834 8.8554 2.2676 2.3955 6.3729 6.0304 9.1229 8.0775s7.6457 4.9263 10.879 6.3984l5.8792 2.6764 8.1974 1.9816c4.5086 1.0899 11.313 2.3812 15.121 2.8697 3.8078 0.4884 11.873 0.9445 17.923 1.0136zm18.836-140.87c-27.685 0-50.336-0.1982-50.336-0.4404s1.1812-3.7297 2.6249-7.75 3.9792-10.004 5.6345-13.298l3.0096-5.988 6.6155-6.5793 6.6155-6.5793 6.5-3.1081c3.575-1.7095 8.3-3.5708 10.5-4.1363s8.5-1.3157 14-1.6671l10-0.6391 7.6793 0.9869 7.6793 0.9869 5.5807 2.555 5.5807 2.5549 3.0614 3.3007c1.6838 1.8154 3.6902 4.4889 4.4589 5.941l1.3975 2.6402 0.92289 5.8598 0.92289 5.8598-1.0557 9.75-1.0557 9.75h-50.336zm299.17 140.88 11.006 0.122 12.494-1.4807c6.8717-0.8144 16.019-2.164 20.327-2.9991 4.3083-0.8351 11.283-2.4929 15.5-3.6839 4.2168-1.1911 8.0318-2.4788 8.4777-2.8617s1.6375-4.9213 2.6479-10.085 2.2832-12.089 2.8284-15.389 0.827-6.1767 0.6263-6.3925c-0.2008-0.2159-0.9384 0.063-1.6392 0.6195s-5.6074 2.6214-10.904 4.5884l-9.6292 3.5765-13.712 2.6567-13.712 2.6566-11.658-0.3978-11.658-0.3979-6.622-2.2965-6.6221-2.2965-5.117-4.4763-5.1171-4.4762-3.3943-6.182-3.3943-6.182-1.6166-8.2703-1.6166-8.2703 0.01-10.73 0.01-10.73 1.9645-13 1.9646-13 2.0786-7c1.1433-3.85 2.4369-8.35 2.8747-10 0.4377-1.65 2.2717-6.375 4.0754-10.5s5.0213-10.5 7.1503-14.168l3.8707-6.6676 4.7541-4.9258 4.754-4.9258 5.0345-3.1226 5.0346-3.1226 6.4654-1.9914c3.556-1.0952 9.8405-2.5173 13.966-3.1602l7.5-1.1687 11 0.552 11 0.552 13 2.6021 13 2.6021 5.2875 1.972c2.9081 1.0847 5.4146 1.9721 5.5698 1.9721 0.1553 0 0.8528-3.7125 1.5499-8.25 0.6972-4.5375 1.9381-12.003 2.7575-16.589 0.8194-4.5867 1.2925-8.5368 1.0513-8.778-0.2413-0.2412-4.1489-0.8617-8.6836-1.3789-4.5348-0.5172-16.86-1.4355-27.389-2.0407l-19.144-1.1003-13.5 1.036-13.5 1.036-10 2.1014-10 2.1015-6.4401 2.5758c-3.542 1.4168-8.7301 3.9733-11.529 5.6812-2.7989 1.708-6.3617 4.0054-7.9173 5.1054-1.5557 1.1-6.2752 5.3917-10.488 9.5372l-7.6595 7.5372-4.2755 6.2636c-2.3515 3.4449-6.4194 10.628-9.0397 15.963l-4.7642 9.6992-3.6515 10.5c-2.0084 5.775-4.8124 15.225-6.2313 21l-2.5797 10.5-0.9364 9.5-0.9363 9.5 0.01 12.5 0.01 12.5 0.9444 7.2717 0.9444 7.2718 2.9953 7.4802 2.9952 7.4802 3.4595 5.4081 3.4594 5.408 5.5012 5.414 5.5012 5.414 5.8188 3.0754 5.8188 3.0754 7.6454 2.1235c4.2049 1.1679 10.28 2.5083 13.5 2.9786 3.22 0.4704 10.807 0.9101 16.861 0.9771zm164.49-0.3694 13.5-0.3868 8.5-2.1755 8.5-2.1756 5.5-2.6002c3.025-1.4301 7.975-4.2532 11-6.2735s7.7073-5.8611 10.405-8.5351c2.6978-2.6741 6.6984-7.2364 8.8902-10.138 2.1918-2.9021 4.1172-5.1445 4.2786-4.9831 0.1613 0.1614-0.343 4.7858-1.1208 10.276-0.7777 5.4907-1.4229 12.796-1.4336 16.233l-0.019 6.25h18.353 18.353l0.5611-14.25 0.561-14.25 2.6188-18.5c1.4404-10.175 3.7668-25.25 5.1698-33.5 1.4029-8.25 3.8416-22.2 5.4193-31s4.077-22.525 5.5541-30.5l2.6856-14.5 0.09-12.525 0.09-12.525-2.8321-5.7886-2.832-5.7885-3.8404-3.6867-3.8404-3.6867-6.3051-3.195-6.3051-3.1949-9.3969-2.0901-9.3968-2.0902-12.938-0.9845-12.938-0.9846-16.666 1.0311c-9.166 0.5671-22.065 1.6869-28.665 2.4884l-12 1.4574-8.1783 0.031-8.1783 0.031-1.1899 5.75c-0.6545 3.1625-2.4732 10.676-4.0415 16.697-1.5684 6.0207-2.7062 11.092-2.5285 11.27s4.5516-0.815 9.7198-2.206c5.1682-1.3911 16.147-3.6787 24.397-5.0836l15-2.5544 13.5-0.5564 13.5-0.5564 8.6958 1.5243 8.6958 1.5242 5.8042 2.8648 5.8042 2.8647 3.25 4.844 3.25 4.844-0.046 7.637-0.046 7.637-1.7228 8.3806-1.7228 8.3807-35.982 0.1298-35.981 0.1298-11.776 3.2289c-6.477 1.7759-13.649 4.1337-15.938 5.2395-2.2888 1.1059-4.5783 2.0107-5.0877 2.0107s-4.3624 2.1366-8.5622 4.7479l-7.636 4.7479-6.0138 6.0021c-3.3076 3.3012-7.5333 8.2521-9.3905 11.002-1.8571 2.75-4.8745 8.4949-6.7052 12.766l-3.3287 7.7664-1.5277 8.7336-1.5277 8.7336v9.162 9.1621l1.4595 7.6282 1.4596 7.6283 2.7078 4.9753c1.4894 2.7364 4.2225 6.7447 6.0737 8.9075l3.3658 3.9322 5.9812 3.6333 5.9811 3.6333 6.8462 1.9374c3.7655 1.0656 9.4965 2.3556 12.736 2.8666l5.8894 0.9292 13.5-0.3868zm12.5-27.962-8 0.4171-5.2985-1.3494c-2.9142-0.7422-7.3361-2.3974-9.8265-3.6782l-4.528-2.3289-2.4713-2.9369c-1.3592-1.6154-3.4356-4.7894-4.6142-7.0535l-2.1428-4.1164-0.4202-9.613-0.4201-9.6129 1.6951-5.8311c0.9324-3.2071 3.1197-8.7721 4.8608-12.367l3.1657-6.5357 6.0621-6.0203 6.0621-6.0202 6.4379-3.0997 6.4379-3.0997 8-1.9003 8-1.9003h25 25l1.5817 0.654 1.5816 0.654-1.3311 7.846c-0.7322 4.3153-2.4783 12.121-3.8804 17.346s-3.8773 12.906-5.5005 17.068-2.9513 7.8429-2.9513 8.1783-1.6434 3.3686-3.652 6.7404l-3.6519 6.1306-5.9967 5.9411c-3.2981 3.2676-6.3598 5.9411-6.8036 5.9411s-2.4655 1.1255-4.4925 2.5011l-3.6856 2.501-8.1088 2.5635-8.1089 2.5635-8 0.4171zm325.5 28.32 9.5 0.1197 9-1.4607c4.95-0.8034 11.25-2.0976 14-2.8759 2.75-0.7784 7.7-2.7986 11-4.4893l6-3.074 5.1616-4.5432 5.1616-4.5432 5.4361-7.2498c2.9899-3.9873 5.6973-7.9247 6.0166-8.7497l0.5804-1.5-0.5048 5c-0.2777 2.75-0.9003 7.25-1.3836 10-0.4832 2.75-1.1761 8.0375-1.5397 11.75l-0.6612 6.75h19.616 19.616v-6.75-6.75l2.9886-25.5c1.6438-14.025 4.0745-32.7 5.4016-41.5s3.3755-21.4 4.5521-28c1.1765-6.6 3.2602-18.525 4.6303-26.5 1.37-7.975 3.8449-21.925 5.4996-31s4.303-23.475 5.885-32c1.5821-8.525 4.041-21.8 5.4642-29.5 1.4233-7.7 3.9732-21.2 5.6664-30 1.6933-8.8 4.1668-21.175 5.4966-27.5 1.3299-6.325 2.4161-11.838 2.4138-12.25v-0.75h-21.402-21.402l-0.6321 6.25c-0.3476 3.4375-1.9859 14.8-3.6408 25.25-1.6548 10.45-4.3525 27.1-5.9948 37s-3.2256 19.5-3.5184 21.334l-0.5323 3.3336-1.689-0.7182c-0.9289-0.3951-5.964-1.7917-11.189-3.1037l-9.5-2.3854-13-1.0124-13-1.0125-11 1.025-11 1.025-10 2.5277-10 2.5277-9.5 4.6335-9.5 4.6335-7 5.1824-7 5.1825-6.0453 6.4816c-3.3249 3.5649-8.1282 9.4613-10.674 13.103l-4.6288 6.6216-5.4356 11.311c-2.9895 6.2209-6.6276 14.461-8.0846 18.311s-4.0266 12.384-5.7103 18.965l-3.0611 11.965-1.5082 15.535-1.5081 15.535 1.1325 12.5 1.1324 12.5 1.3389 4.5c0.7363 2.475 2.289 6.8846 3.4503 9.7992l2.1115 5.2992 3.8496 5.211 3.8497 5.2111 4.3955 3.6003 4.3956 3.6003 6 2.9792c3.3 1.6385 8.8358 3.7561 12.302 4.7057s9.091 2.0896 12.5 2.5334 10.473 0.8608 15.698 0.9267zm17.051-28.372-7.5506 0.401-5.0963-0.9173c-2.803-0.5045-7.2883-1.8569-9.9673-3.0053l-4.871-2.088-4.0987-3.3585-4.0987-3.3586-3.0459-5.8338-3.046-5.8338-1.388-6.5-1.3881-6.5 0.1177-13 0.1176-13 1.612-11.5 1.612-11.5 2.5054-8c1.3779-4.4 2.512-8.5513 2.5203-9.225 0.01-0.6737 1.3688-4.2737 3.0234-8 1.6547-3.7263 4.4191-9.475 6.1433-12.775 1.7241-3.3 4.9468-8.4445 7.1615-11.432 2.2146-2.9877 6.16-7.4877 8.7674-10s6.7552-5.8075 9.2172-7.3227l4.4765-2.7548 7.8628-2.7208 7.8629-2.7208 16.5-0.01h16.5l9.5 2.6356c5.225 1.4495 10.773 3.1306 12.328 3.7357l2.8284 1.1001-0.5524 2.745c-0.3038 1.5097-1.4923 8.1449-2.6411 14.745s-3.4124 19.2-5.0304 28-4.1038 22.075-5.5242 29.5c-1.4203 7.425-3.4776 16.875-4.5718 21s-2.6378 9.8385-3.4304 12.697c-0.7925 2.8582-2.6797 7.8082-4.1937 11s-4.1633 7.8283-5.8873 10.303c-1.7239 2.475-4.6399 5.9035-6.4799 7.6188-1.84 1.7154-5.8205 4.7637-8.8455 6.7741l-5.5 3.6552-7.9494 2.5226-7.9494 2.5227-7.5506 0.401zm-1471.8 23.506h24.297l1.7433-10.75c0.9587-5.9125 2.8313-17.275 4.1612-25.25s3.8051-22.825 5.5005-33c1.6953-10.175 4.2368-25.25 5.6477-33.5s3.6526-21.048 4.9815-28.439c1.329-7.3916 2.6685-13.692 2.9768-14l0.5605-0.5606h65.333 65.333l0.7254 0.7252 0.7255 0.7252-1.1329 5.7748c-0.6231 3.1761-2.4662 12.975-4.0957 21.775-1.6296 8.8-4.3691 23.65-6.0878 33s-4.2039 22.625-5.5226 29.5c-1.3188 6.875-3.9875 21.275-5.9304 32-1.943 10.725-3.5286 20.062-3.5236 20.75l0.01 1.25h24.397 24.397l1.0795-6.25c0.5938-3.4375 1.5491-9.625 2.123-13.75 0.5738-4.125 1.9572-12.9 3.0741-19.5 1.117-6.6 3.3487-19.65 4.9593-29s4.3065-25.325 5.9909-35.5c1.6843-10.175 4.1831-25.025 5.5527-33 1.3697-7.975 3.8102-21.475 5.4235-30 1.6133-8.525 4.3004-22.925 5.9715-32 1.671-9.075 4.1745-22.8 5.5632-30.5 1.3887-7.7 3.9208-21.65 5.6269-31s3.8604-20.262 4.7874-24.25l1.6854-7.25h-24.703-24.702l-0.6719 4.75c-0.3695 2.6125-1.5629 9.925-2.6519 16.25-1.0891 6.325-3.07 17.575-4.4022 25s-3.7667 21.6-5.41 31.5c-1.6434 9.9-3.7376 23.005-4.6539 29.123l-1.6661 11.123-36.262 0.7339-36.262 0.7339-30.373-0.7208c-16.705-0.3964-30.466-0.7995-30.579-0.8958-0.1132-0.096 0.4558-3.9823 1.2644-8.6358 0.8085-4.6535 2.3382-12.736 3.3993-17.961s3.0726-15.575 4.47-23c1.3973-7.425 2.9802-16.65 3.5174-20.5s1.6631-10.262 2.502-14.25c0.8388-3.9875 2.4308-12.387 3.5377-18.665 1.1069-6.2783 2.2862-12.128 2.6207-13l0.6082-1.585h-24.503-24.503l-1.5694 8.75c-0.8633 4.8125-2.0142 11.675-2.5577 15.25s-2.3686 15.05-4.0558 25.5c-1.6871 10.45-4.1778 25.975-5.5347 34.5-1.357 8.525-3.8282 24.05-5.4915 34.5s-4.4078 26.65-6.0988 36-4.1392 22.625-5.4404 29.5c-1.3013 6.875-3.781 19.925-5.5106 29-1.7295 9.075-4.2527 21.9-5.607 28.5-1.3544 6.6-2.8516 14.25-3.3273 17-0.4756 2.75-2.0235 10.682-3.4396 17.626-1.4162 6.9441-2.5749 13.357-2.5749 14.25v1.6244h24.297zm268.98 0h21.51l0.60699-1.5818c0.33385-0.87 0.60699-3.152 0.60699-5.0712s1.3526-11.895 3.0057-22.168c1.6532-10.273 4.3846-27.004 6.07-37.179s4.1742-25.025 5.5309-33 3.7694-21.25 5.3616-29.5 4.0364-21.075 5.4316-28.5c1.3952-7.425 4.1388-21.551 6.097-31.392s3.8045-18.287 4.103-18.77l0.54271-0.8781-21.752 0.2697-21.752 0.2697-1.8116 13c-0.99636 7.15-3.1747 21.325-4.8408 31.5-1.6661 10.175-4.1862 25.7-5.6002 34.5-1.414 8.8-3.88 22.975-5.48 31.5-1.6 8.525-4.0518 21.575-5.4485 29-1.3967 7.425-3.903 20.475-5.5695 29s-3.9026 19.775-4.9692 25c-1.0666 5.225-2.2122 10.512-2.5456 11.75l-0.60634 2.25h21.51zm503.07 0h21.35l0.6413-9.0339c0.3526-4.9686 1.5609-14.981 2.6849-22.25 1.1241-7.2689 3.4255-21.766 5.1143-32.216 1.6889-10.45 4.8276-27.844 6.9749-38.653 2.1473-10.809 4.5747-21.553 5.3942-23.876 0.8194-2.3226 1.4899-4.8394 1.4899-5.5929 0-0.7536 1.6052-4.8595 3.5672-9.1243 1.9619-4.2648 5.6182-10.795 8.1251-14.512l4.5579-6.7582 6.1013-5.6486 6.1012-5.6487 7.5236-3.5932 7.5237-3.5932 11.5 0.06 11.5 0.06 5.6539 1.6896c3.1097 0.9294 5.9222 1.6897 6.25 1.6897 0.3279 0 0.5961-1.0631 0.5961-2.3625 0-1.2993 1.125-7.8862 2.5-14.638 1.375-6.7512 2.5-12.56 2.5-12.908s-3.2625-1.625-7.25-2.8375-9.5-2.4825-12.25-2.8221l-5-0.6175-6.5 1.1497c-3.575 0.6323-8.8908 2.0282-11.813 3.102-2.922 1.0738-7.7467 3.5092-10.722 5.4122-2.9748 1.9029-7.6022 5.6112-10.283 8.2405s-7.1901 7.9306-10.02 11.781c-2.8305 3.85-5.7905 7.9-6.578 9l-1.4317 2 0.8693-4c0.4782-2.2 1.8099-9.4 2.9595-16s2.3295-12.788 2.6219-13.75l0.5318-1.75h-19.067-19.067v2.4105c0 1.3258-1.1254 9.3133-2.5008 17.75-1.3755 8.4368-3.6436 22.54-5.0403 31.34s-3.8755 24.1-5.5085 34c-1.633 9.9-4.1125 24.075-5.5101 31.5s-3.8791 20.475-5.5146 29-4.351 22.475-6.0345 31c-1.6834 8.525-3.6976 18.593-4.476 22.373-0.77836 3.78-1.4152 7.2675-1.4152 7.75v0.8773h21.35zm506.82 0h21.83v-6.6807-6.6808l2.5156-16.569c1.3837-9.1132 3.6663-23.544 5.0726-32.069s3.1592-19.325 3.8952-24c0.7361-4.675 2.6867-14.8 4.3348-22.5s3.7066-16.025 4.5746-18.5c0.8679-2.475 1.5846-5.0717 1.5926-5.7704 0.01-0.6987 1.8689-5.192 4.1353-9.985l4.1208-8.7146 5.4363-7.2231 5.4363-7.2231 5.9496-4.4725c3.2723-2.4598 8.5342-5.7242 11.693-7.2541l5.7433-2.7817 12.5 0.086 12.5 0.086 4.9207 1.5802 4.9207 1.5801 0.8293-0.5126 0.8293-0.5125 0.042-3.191c0.023-1.755 1.0933-8.2853 2.3786-14.512l2.337-11.321-2.6287-1.0291c-1.4457-0.566-4.8786-1.7376-7.6286-2.6036l-5-1.5745-9 0.023-9 0.023-7.3346 2.5805-7.3346 2.5804-5.5072 3.3208-5.5072 3.3208-7.16 7.5-7.1599 7.5-3.8469 5.8181c-2.1158 3.1999-3.9786 5.6749-4.1395 5.5-0.161-0.175 0.989-6.8431 2.5555-14.818s2.8676-15.512 2.8913-16.75l0.043-2.2499h-18.5-18.5v0.6372c0 0.3504-0.9223 6.7629-2.0496 14.25-1.1272 7.487-3.3906 21.938-5.0296 32.113-1.6391 10.175-4.3285 26.6-5.9764 36.5-1.648 9.9-4.1323 24.075-5.5207 31.5s-3.8544 20.475-5.4799 29-4.2964 22.25-5.9353 30.5-3.8099 19.162-4.8244 24.25l-1.8446 9.25h21.83zm-967.6-244.02 6.0719 0.022 4.8263-1.6445 4.8263-1.6445 4.2715-4.3328 4.2715-4.3329 2.2499-5.7726 2.2499-5.7727 0.0804-8.5 0.0804-8.5-2-3.3191-2-3.319-3.482-2.1559-3.482-2.1559h-7.518l-7.518-1e-4 -5.1183 2.2915-5.1183 2.2915-2.971 3.1835-2.971 3.1835-2.3332 5.5-2.3332 5.5-0.44105 8.5672-0.44105 8.5672 2.1722 4.258 2.1722 4.2579 4.1913 1.9029 4.1913 1.9029 6.0719 0.022z"
    fill="#b3131b"
  />
</svg>
