<?xml version="1.0" encoding="utf-8"?>
<!-- Generator: Adobe Illustrator 21.1.0, SVG Export Plug-In . SVG Version: 6.00 Build 0)  -->
<svg version="1.1" id="Camada_1" xmlns="http://www.w3.org/2000/svg" xmlns:xlink="http://www.w3.org/1999/xlink" x="0px" y="0px"
	 viewBox="0 0 30 30" style="enable-background:new 0 0 30 30;" xml:space="preserve">
<style type="text/css">
	.st0{fill:#1D1D1B;}
	.st1{fill:#FFFFFF;}
	.st2{fill:#E5013C;}
	.st3{fill:#DCDCDC;}
</style>
<path d="M7.5,4C7.3,4,7.1,4,7,4.1c-1.6,0.6-2.7,3-2.9,4.6c-0.8,5.2,3.4,9.8,7.2,12.8c3.4,2.6,9.9,7,13.7,2.8c0.5-0.5,1.1-1.3,1-2
	c-0.1-1.3-1.3-2.2-2.2-2.9c-0.7-0.5-2.2-1.9-3.1-1.9c-0.8,0-1.3,0.9-1.9,1.4L18,19.7c-0.2,0.2-2.1-1.1-2.3-1.3
	c-0.8-0.5-1.6-1.1-2.2-1.7c-0.7-0.6-1.3-1.3-1.8-2.1c-0.2-0.2-1.4-2.1-1.3-2.2c0,0,1.1-1.2,1.4-1.6c0.6-1,1.1-1.7,0.4-2.9
	c-0.3-0.4-0.6-0.8-1-1.1c-0.6-0.6-1.3-1.2-2-1.8C8.7,4.7,8.1,4.1,7.5,4z"/>
</svg>
