<?xml version="1.0" encoding="utf-8"?>
<!-- Generator: Adobe Illustrator 21.1.0, SVG Export Plug-In . SVG Version: 6.00 Build 0)  -->
<svg version="1.1" id="Camada_1" xmlns="http://www.w3.org/2000/svg" xmlns:xlink="http://www.w3.org/1999/xlink" x="0px" y="0px"
	 viewBox="0 0 30 30" style="enable-background:new 0 0 30 30;" xml:space="preserve">
<style type="text/css">
	.st0{fill:#1D1D1B;}
	.st1{fill:#FFFFFF;}
	.st2{fill:#E5013C;}
	.st3{fill:#DCDCDC;}
</style>
<path d="M15.5,5.2c-5.4,0-8.1,3.8-8.1,7c0,1.9,0.7,3.7,2.3,4.3c0.3,0.1,0.5,0,0.6-0.3c0.1-0.2,0.2-0.7,0.2-0.9
	c0.1-0.3,0-0.4-0.2-0.6c-0.5-0.5-0.7-1.2-0.7-2.2c0-2.8,2.1-5.4,5.6-5.4c3,0,4.7,1.9,4.7,4.3c0,3.3-1.4,6-3.6,6
	c-1.2,0-2.1-1-1.8-2.2c0.3-1.4,1-3,1-4c0-0.9-0.5-1.7-1.5-1.7c-1.2,0-2.2,1.2-2.2,2.9c0,1.1,0.4,1.8,0.4,1.8s-1.2,5.2-1.5,6.1
	c-0.4,1.8-0.1,4.1,0,4.3c0,0.1,0.2,0.2,0.3,0.1c0.1-0.1,1.5-1.9,2-3.7c0.1-0.5,0.8-3.1,0.8-3.1c0.4,0.7,1.5,1.4,2.8,1.4
	c3.6,0,6.1-3.3,6.1-7.7C22.6,8.3,19.8,5.2,15.5,5.2z"/>
</svg>
