<?xml version="1.0" encoding="utf-8"?>
<!-- Generator: Adobe Illustrator 21.1.0, SVG Export Plug-In . SVG Version: 6.00 Build 0)  -->
<svg version="1.1" id="Camada_1" xmlns="http://www.w3.org/2000/svg" xmlns:xlink="http://www.w3.org/1999/xlink" x="0px" y="0px"
	 viewBox="0 0 30 30" style="enable-background:new 0 0 30 30;" xml:space="preserve">
<style type="text/css">
	.st0{fill:#1D1D1B;}
	.st1{fill:#FFFFFF;}
	.st2{fill:#E5013C;}
	.st3{fill:#DCDCDC;}
</style>
<path d="M24.2,5.8c-4-4-10.4-4-14.4,0c-3.5,3.5-3.9,8.9-1.3,12.9l-5.1,5.1c-0.8,0.8-0.8,2,0,2.8c0.8,0.8,2,0.8,2.8,0l5.1-5.1
	c4,2.7,9.4,2.2,12.9-1.3C28.2,16.2,28.2,9.8,24.2,5.8z M11.6,18.4c-3-3-3-7.8,0-10.8c3-3,7.8-3,10.8,0s3,7.8,0,10.8
	C19.4,21.3,14.6,21.3,11.6,18.4z"/>
</svg>
