<?xml version="1.0" encoding="utf-8"?>
<!-- Generator: Adobe Illustrator 21.0.0, SVG Export Plug-In . SVG Version: 6.00 Build 0)  -->
<svg version="1.1" id="Camada_1" xmlns="http://www.w3.org/2000/svg" xmlns:xlink="http://www.w3.org/1999/xlink" x="0px" y="0px"
	 viewBox="0 0 50 50" style="enable-background:new 0 0 50 50;" xml:space="preserve">
<g id="icons_3_">
	<path id="notes_1_" d="M46.6,7.1c0-2.2-1.8-3.9-3.9-3.9H28.3c-1,0-2,0.4-2.8,1.2L4.4,25.5c-1.6,1.6-1.6,4.1,0,5.7l14.4,14.4
		c1.6,1.6,4.1,1.6,5.7,0l21.1-21.1c0.8-0.8,1.2-1.8,1.2-2.8L46.6,7.1z M34.8,19.2c-2.2,0-3.9-1.8-3.9-3.9s1.8-3.9,3.9-3.9
		c2.2,0,3.9,1.8,3.9,3.9S36.9,19.2,34.8,19.2z"/>
</g>
</svg>
