<?xml version="1.0" encoding="utf-8"?>
<!-- Generator: Adobe Illustrator 21.1.0, SVG Export Plug-In . SVG Version: 6.00 Build 0)  -->
<svg version="1.1" id="Camada_1" xmlns="http://www.w3.org/2000/svg" xmlns:xlink="http://www.w3.org/1999/xlink" x="0px" y="0px"
	 viewBox="0 0 30 30" style="enable-background:new 0 0 30 30;" xml:space="preserve">
<style type="text/css">
	.st0{fill:#1D1D1B;}
	.st1{fill:#FFFFFF;}
	.st2{fill:#E5013C;}
	.st3{fill:#DCDCDC;}
</style>
<path id="XMLID_40_" d="M11.2,23.3c7.7,0,11.9-6.4,11.9-11.9c0-0.2,0-0.4,0-0.5c0.8-0.6,1.5-1.3,2.1-2.2c-0.8,0.3-1.6,0.6-2.4,0.7
	C23.7,8.8,24.3,8,24.6,7c-0.8,0.5-1.7,0.8-2.7,1c-1.6-1.7-4.2-1.8-5.9-0.2c-1.1,1-1.6,2.6-1.2,4c-3.4-0.2-6.5-1.8-8.6-4.4
	c-1.1,1.9-0.5,4.4,1.3,5.6c-0.7,0-1.3-0.2-1.9-0.5c0,0,0,0,0,0.1c0,2,1.4,3.7,3.4,4.1c-0.6,0.2-1.3,0.2-1.9,0.1
	c0.6,1.7,2.1,2.9,3.9,2.9c-1.5,1.2-3.3,1.8-5.2,1.8c-0.3,0-0.7,0-1-0.1C6.7,22.6,8.9,23.3,11.2,23.3"/>
</svg>
